<svg width="465" height="77" viewBox="0 0 465 77" fill="none" xmlns="http://www.w3.org/2000/svg">
<path d="M1.72727 25.6364V15.4545H42.1818V25.6364H28.1818V62H15.7273V25.6364H1.72727ZM46.9375 62V15.4545H80.483V25.6364H59.5739V33.6364H78.7557V43.8182H59.5739V51.8182H80.392V62H46.9375ZM104.659 62H86.75V15.4545H104.477C109.265 15.4545 113.402 16.3864 116.886 18.25C120.386 20.0985 123.083 22.7651 124.977 26.25C126.886 29.7197 127.841 33.8788 127.841 38.7273C127.841 43.5758 126.894 47.7424 125 51.2273C123.106 54.697 120.424 57.3636 116.955 59.2273C113.485 61.0758 109.386 62 104.659 62ZM99.3864 51.2727H104.205C106.508 51.2727 108.47 50.9015 110.091 50.1591C111.727 49.4167 112.97 48.1364 113.818 46.3182C114.682 44.5 115.114 41.9697 115.114 38.7273C115.114 35.4848 114.674 32.9545 113.795 31.1364C112.932 29.3182 111.659 28.0379 109.977 27.2955C108.311 26.553 106.265 26.1818 103.841 26.1818H99.3864V51.2727Z" fill="#EB0028"/>
<path d="M139.412 14.1818L143.005 21.3693L146.727 14.1818H153.73L147.636 25.0909L153.957 36H147.011L143.005 28.7557L139.099 36H132.054L138.389 25.0909L132.366 14.1818H139.412Z" fill="#EB0028"/>
<path d="M175.818 62H162.182V15.4545H176.636C181.076 15.4545 184.871 16.3788 188.023 18.2273C191.189 20.0758 193.614 22.7273 195.295 26.1818C196.977 29.6364 197.818 33.7803 197.818 38.6136C197.818 43.4924 196.955 47.6818 195.227 51.1818C193.515 54.6667 191.015 57.3409 187.727 59.2045C184.455 61.0682 180.485 62 175.818 62ZM166.432 58.1818H175.568C179.568 58.1818 182.917 57.3939 185.614 55.8182C188.311 54.2424 190.333 51.9924 191.682 49.0682C193.03 46.1439 193.705 42.6591 193.705 38.6136C193.689 34.5985 193.023 31.1439 191.705 28.25C190.402 25.3561 188.462 23.1364 185.886 21.5909C183.326 20.0455 180.159 19.2727 176.386 19.2727H166.432V58.1818ZM201.568 15.4545H206.477L220.273 37.5455H220.682L234.477 15.4545H239.386L222.591 41.8409V62H218.364V41.8409L201.568 15.4545ZM247.369 62V15.4545H262.392C265.695 15.4545 268.453 16.0909 270.665 17.3636C272.892 18.6212 274.566 20.3333 275.688 22.5C276.824 24.6667 277.392 27.1061 277.392 29.8182C277.392 32.5303 276.831 34.9773 275.71 37.1591C274.589 39.3258 272.922 41.0455 270.71 42.3182C268.498 43.5758 265.748 44.2045 262.46 44.2045H250.642V40.3864H262.347C264.786 40.3864 266.809 39.9318 268.415 39.0227C270.021 38.0985 271.218 36.8409 272.006 35.25C272.809 33.6591 273.21 31.8485 273.21 29.8182C273.21 27.7879 272.809 25.9773 272.006 24.3864C271.218 22.7955 270.013 21.5455 268.392 20.6364C266.786 19.7273 264.748 19.2727 262.278 19.2727H251.619V62H247.369ZM282.688 62H278.233L295.165 15.4545H299.71L316.642 62H312.188L297.597 20.9773H297.278L282.688 62ZM285.892 44.1591H308.983V47.9773H285.892V44.1591ZM327.46 48.8182L327.415 43.5227H328.324L344.688 27.0909H349.801L333.642 43.2727L333.278 43.3409L327.46 48.8182ZM323.778 62V15.4545H327.824V62H323.778ZM345.528 62L331.347 44.0682L334.256 41.2727L350.71 62H345.528ZM379.585 48.6591V27.0909H383.631V62H379.585V56.2045H379.267C378.449 57.9924 377.153 59.4848 375.381 60.6818C373.608 61.8636 371.441 62.4545 368.881 62.4545C366.653 62.4545 364.676 61.9697 362.949 61C361.222 60.0152 359.866 58.5758 358.881 56.6818C357.896 54.7879 357.403 52.4621 357.403 49.7045V27.0909H361.449V49.4545C361.449 52.1818 362.252 54.3788 363.858 56.0455C365.464 57.697 367.525 58.5227 370.04 58.5227C371.616 58.5227 373.131 58.1439 374.585 57.3864C376.04 56.6288 377.237 55.5227 378.176 54.0682C379.116 52.5985 379.585 50.7955 379.585 48.6591ZM394.341 62V27.0909H398.273V32.4545H398.568C399.265 30.697 400.477 29.2803 402.205 28.2045C403.947 27.1136 405.917 26.5682 408.114 26.5682C408.447 26.5682 408.818 26.5758 409.227 26.5909C409.636 26.6061 409.977 26.6212 410.25 26.6364V30.75C410.068 30.7197 409.75 30.6742 409.295 30.6136C408.841 30.553 408.348 30.5227 407.818 30.5227C406 30.5227 404.379 30.9091 402.955 31.6818C401.545 32.4394 400.432 33.4924 399.614 34.8409C398.795 36.1894 398.386 37.7273 398.386 39.4545V62H394.341ZM428.659 62.7273C425.795 62.7273 423.288 61.9697 421.136 60.4545C418.985 58.9394 417.303 56.8258 416.091 54.1136C414.894 51.4015 414.295 48.2424 414.295 44.6364C414.295 41.0455 414.894 37.9015 416.091 35.2045C417.303 32.4924 418.992 30.3864 421.159 28.8864C423.326 27.3712 425.848 26.6136 428.727 26.6136C430.848 26.6136 432.614 26.9924 434.023 27.75C435.432 28.4924 436.561 29.4167 437.409 30.5227C438.258 31.6288 438.917 32.7045 439.386 33.75H439.75V15.4545H443.818V62H439.864V55.5227H439.386C438.917 56.5833 438.25 57.6742 437.386 58.7955C436.523 59.9015 435.379 60.8333 433.955 61.5909C432.545 62.3485 430.78 62.7273 428.659 62.7273ZM429.136 59.0227C431.394 59.0227 433.318 58.4091 434.909 57.1818C436.5 55.9394 437.712 54.2348 438.545 52.0682C439.394 49.8864 439.818 47.3864 439.818 44.5682C439.818 41.7803 439.402 39.3182 438.568 37.1818C437.735 35.0303 436.523 33.3485 434.932 32.1364C433.341 30.9091 431.409 30.2955 429.136 30.2955C426.803 30.2955 424.833 30.9318 423.227 32.2045C421.636 33.4621 420.424 35.1667 419.591 37.3182C418.773 39.4697 418.364 41.8864 418.364 44.5682C418.364 47.2803 418.78 49.7273 419.614 51.9091C420.447 54.0909 421.659 55.8258 423.25 57.1136C424.856 58.3864 426.818 59.0227 429.136 59.0227ZM455.386 62V27.0909H459.455V62H455.386ZM457.455 21.0909C456.621 21.0909 455.909 20.8106 455.318 20.25C454.727 19.6742 454.432 18.9848 454.432 18.1818C454.432 17.3788 454.727 16.697 455.318 16.1364C455.909 15.5606 456.621 15.2727 457.455 15.2727C458.288 15.2727 459 15.5606 459.591 16.1364C460.182 16.697 460.477 17.3788 460.477 18.1818C460.477 18.9848 460.182 19.6742 459.591 20.25C459 20.8106 458.288 21.0909 457.455 21.0909Z" fill="black"/>
</svg>
