<svg width="566" height="69" viewBox="0 0 566 69" fill="none" xmlns="http://www.w3.org/2000/svg">
<path d="M1.72727 26.5348V16.353H42.1818V26.5348H28.1818V62.8984H15.7273V26.5348H1.72727ZM46.9375 62.8984V16.353H80.483V26.5348H59.5739V34.5348H78.7557V44.7166H59.5739V52.7166H80.392V62.8984H46.9375ZM104.659 62.8984H86.75V16.353H104.477C109.265 16.353 113.402 17.2848 116.886 19.1484C120.386 20.9969 123.083 23.6636 124.977 27.1484C126.886 30.6181 127.841 34.7772 127.841 39.6257C127.841 44.4742 126.894 48.6409 125 52.1257C123.106 55.5954 120.424 58.2621 116.955 60.1257C113.485 61.9742 109.386 62.8984 104.659 62.8984ZM99.3864 52.1712H104.205C106.508 52.1712 108.47 51.8 110.091 51.0575C111.727 50.3151 112.97 49.0348 113.818 47.2166C114.682 45.3984 115.114 42.8681 115.114 39.6257C115.114 36.3833 114.674 33.853 113.795 32.0348C112.932 30.2166 111.659 28.9363 109.977 28.1939C108.311 27.4515 106.265 27.0803 103.841 27.0803H99.3864V52.1712Z" fill="#EB0028"/>
<path d="M137.489 8.55131L140.364 14.3013L143.341 8.55131H148.943L144.068 17.2786L149.125 26.0059H143.568L140.364 20.2104L137.239 26.0059H131.602L136.67 17.2786L131.852 8.55131H137.489Z" fill="#EB0028"/>
<path d="M181 63.8066H166.636V17.2612H181.636C186.152 17.2612 190.015 18.193 193.227 20.0566C196.439 21.9051 198.902 24.5642 200.614 28.0339C202.326 31.4885 203.182 35.6248 203.182 40.443C203.182 45.2915 202.318 49.4657 200.591 52.9657C198.864 56.4506 196.348 59.1324 193.045 61.0112C189.742 62.8748 185.727 63.8066 181 63.8066ZM172.273 58.8066H180.636C184.485 58.8066 187.674 58.0642 190.205 56.5794C192.735 55.0945 194.621 52.9809 195.864 50.2385C197.106 47.496 197.727 44.2309 197.727 40.443C197.727 36.6854 197.114 33.4506 195.886 30.7385C194.659 28.0112 192.826 25.9203 190.386 24.4657C187.947 22.996 184.909 22.2612 181.273 22.2612H172.273V58.8066ZM206.449 17.2612H212.903L225.812 38.9885H226.358L239.267 17.2612H245.722L228.903 44.6248V63.8066H223.267V44.6248L206.449 17.2612ZM253.011 63.8066V17.2612H268.739C272.39 17.2612 275.375 17.9203 277.693 19.2385C280.027 20.5415 281.754 22.3066 282.875 24.5339C283.996 26.7612 284.557 29.246 284.557 31.9885C284.557 34.7309 283.996 37.2233 282.875 39.4657C281.769 41.7082 280.057 43.496 277.739 44.8294C275.42 46.1475 272.451 46.8066 268.83 46.8066H257.557V41.8066H268.648C271.148 41.8066 273.155 41.3748 274.67 40.5112C276.186 39.6475 277.284 38.4809 277.966 37.0112C278.663 35.5263 279.011 33.8521 279.011 31.9885C279.011 30.1248 278.663 28.4582 277.966 26.9885C277.284 25.5188 276.178 24.3672 274.648 23.5339C273.117 22.6854 271.087 22.2612 268.557 22.2612H258.648V63.8066H253.011ZM290.795 63.8066H284.886L301.977 17.2612H307.795L324.886 63.8066H318.977L305.068 24.6248H304.705L290.795 63.8066ZM292.977 45.6248H316.795V50.6248H292.977V45.6248ZM336.409 51.0794L336.318 44.443H337.409L352.682 28.8975H359.318L343.045 45.3521H342.591L336.409 51.0794ZM331.409 63.8066V17.2612H336.773V63.8066H331.409ZM353.591 63.8066L339.955 46.5339L343.773 42.8066L360.409 63.8066H353.591ZM388.222 49.5339V28.8975H393.585V63.8066H388.222V57.8975H387.858C387.04 59.6703 385.767 61.1779 384.04 62.4203C382.313 63.6475 380.131 64.2612 377.494 64.2612C375.312 64.2612 373.373 63.7839 371.676 62.8294C369.979 61.8597 368.646 60.4051 367.676 58.4657C366.706 56.5112 366.222 54.0491 366.222 51.0794V28.8975H371.585V50.7157C371.585 53.2612 372.297 55.2915 373.722 56.8066C375.161 58.3218 376.994 59.0794 379.222 59.0794C380.555 59.0794 381.911 58.7385 383.29 58.0566C384.684 57.3748 385.85 56.3294 386.79 54.9203C387.744 53.5112 388.222 51.7157 388.222 49.5339ZM403.409 63.8066V28.8975H408.591V34.1703H408.955C409.591 32.443 410.742 31.0415 412.409 29.9657C414.076 28.89 415.955 28.3521 418.045 28.3521C418.439 28.3521 418.932 28.3597 419.523 28.3748C420.114 28.39 420.561 28.4127 420.864 28.443V33.8975C420.682 33.8521 420.265 33.7839 419.614 33.693C418.977 33.5869 418.303 33.5339 417.591 33.5339C415.894 33.5339 414.379 33.89 413.045 34.6021C411.727 35.2991 410.682 36.2688 409.909 37.5112C409.152 38.7385 408.773 40.14 408.773 41.7157V63.8066H403.409ZM439.341 64.5339C436.432 64.5339 433.864 63.7991 431.636 62.3294C429.409 60.8445 427.667 58.7536 426.409 56.0566C425.152 53.3445 424.523 50.14 424.523 46.443C424.523 42.7763 425.152 39.5945 426.409 36.8975C427.667 34.2006 429.417 32.1172 431.659 30.6475C433.902 29.1779 436.492 28.443 439.432 28.443C441.705 28.443 443.5 28.8218 444.818 29.5794C446.152 30.3218 447.167 31.1703 447.864 32.1248C448.576 33.0642 449.129 33.8369 449.523 34.443H449.977V17.2612H455.341V63.8066H450.159V58.443H449.523C449.129 59.0794 448.568 59.8824 447.841 60.8521C447.114 61.8066 446.076 62.6627 444.727 63.4203C443.379 64.1627 441.583 64.5339 439.341 64.5339ZM440.068 59.7157C442.22 59.7157 444.038 59.1551 445.523 58.0339C447.008 56.8975 448.136 55.3294 448.909 53.3294C449.682 51.3142 450.068 48.9885 450.068 46.3521C450.068 43.746 449.689 41.4657 448.932 39.5112C448.174 37.5415 447.053 36.0112 445.568 34.9203C444.083 33.8142 442.25 33.2612 440.068 33.2612C437.795 33.2612 435.902 33.8445 434.386 35.0112C432.886 36.1627 431.758 37.7309 431 39.7157C430.258 41.6854 429.886 43.8975 429.886 46.3521C429.886 48.8369 430.265 51.0945 431.023 53.1248C431.795 55.14 432.932 56.746 434.432 57.943C435.947 59.1248 437.826 59.7157 440.068 59.7157ZM465.909 63.8066V28.8975H471.273V63.8066H465.909ZM468.636 23.0794C467.591 23.0794 466.689 22.7233 465.932 22.0112C465.189 21.2991 464.818 20.443 464.818 19.443C464.818 18.443 465.189 17.5869 465.932 16.8748C466.689 16.1627 467.591 15.8066 468.636 15.8066C469.682 15.8066 470.576 16.1627 471.318 16.8748C472.076 17.5869 472.455 18.443 472.455 19.443C472.455 20.443 472.076 21.2991 471.318 22.0112C470.576 22.7233 469.682 23.0794 468.636 23.0794Z" fill="#F5F5F5"/>
</svg>
