<svg width="156" height="32" viewBox="0 0 156 32" fill="none" xmlns="http://www.w3.org/2000/svg">
<path d="M32.56 15.4C32.56 14.3013 32.8053 13.32 33.296 12.456C33.7973 11.5813 34.4747 10.904 35.328 10.424C36.192 9.93333 37.1573 9.688 38.224 9.688C39.472 9.688 40.5653 10.008 41.504 10.648C42.4427 11.288 43.0987 12.1733 43.472 13.304H40.896C40.64 12.7707 40.2773 12.3707 39.808 12.104C39.3493 11.8373 38.816 11.704 38.208 11.704C37.5573 11.704 36.976 11.8587 36.464 12.168C35.9627 12.4667 35.568 12.8933 35.28 13.448C35.0027 14.0027 34.864 14.6533 34.864 15.4C34.864 16.136 35.0027 16.7867 35.28 17.352C35.568 17.9067 35.9627 18.3387 36.464 18.648C36.976 18.9467 37.5573 19.096 38.208 19.096C38.816 19.096 39.3493 18.9627 39.808 18.696C40.2773 18.4187 40.64 18.0133 40.896 17.48H43.472C43.0987 18.6213 42.4427 19.512 41.504 20.152C40.576 20.7813 39.4827 21.096 38.224 21.096C37.1573 21.096 36.192 20.856 35.328 20.376C34.4747 19.8853 33.7973 19.208 33.296 18.344C32.8053 17.48 32.56 16.4987 32.56 15.4ZM47.6253 13.512C47.9133 13.0427 48.2866 12.6747 48.7453 12.408C49.2146 12.1413 49.7479 12.008 50.3453 12.008V14.36H49.7533C49.0493 14.36 48.5159 14.5253 48.1533 14.856C47.8013 15.1867 47.6253 15.7627 47.6253 16.584V21H45.3853V12.136H47.6253V13.512ZM60.334 12.136L54.846 25.192H52.462L54.382 20.776L50.83 12.136H53.342L55.63 18.328L57.95 12.136H60.334ZM63.7815 13.416C64.0695 13.0107 64.4642 12.6747 64.9655 12.408C65.4775 12.1307 66.0588 11.992 66.7095 11.992C67.4668 11.992 68.1495 12.1787 68.7575 12.552C69.3762 12.9253 69.8615 13.4587 70.2135 14.152C70.5762 14.8347 70.7575 15.6293 70.7575 16.536C70.7575 17.4427 70.5762 18.248 70.2135 18.952C69.8615 19.6453 69.3762 20.184 68.7575 20.568C68.1495 20.952 67.4668 21.144 66.7095 21.144C66.0588 21.144 65.4828 21.0107 64.9815 20.744C64.4908 20.4773 64.0908 20.1413 63.7815 19.736V25.224H61.5415V12.136H63.7815V13.416ZM68.4695 16.536C68.4695 16.0027 68.3575 15.544 68.1335 15.16C67.9202 14.7653 67.6322 14.4667 67.2695 14.264C66.9175 14.0613 66.5335 13.96 66.1175 13.96C65.7122 13.96 65.3282 14.0667 64.9655 14.28C64.6135 14.4827 64.3255 14.7813 64.1015 15.176C63.8882 15.5707 63.7815 16.0347 63.7815 16.568C63.7815 17.1013 63.8882 17.5653 64.1015 17.96C64.3255 18.3547 64.6135 18.6587 64.9655 18.872C65.3282 19.0747 65.7122 19.176 66.1175 19.176C66.5335 19.176 66.9175 19.0693 67.2695 18.856C67.6322 18.6427 67.9202 18.3387 68.1335 17.944C68.3575 17.5493 68.4695 17.08 68.4695 16.536ZM74.9933 13.976V18.264C74.9933 18.5627 75.0626 18.7813 75.2013 18.92C75.3506 19.048 75.5959 19.112 75.9373 19.112H76.9773V21H75.5693C73.6813 21 72.7373 20.0827 72.7373 18.248V13.976H71.6813V12.136H72.7373V9.944H74.9933V12.136H76.9773V13.976H74.9933ZM82.5244 21.144C81.671 21.144 80.903 20.9573 80.2204 20.584C79.5377 20.2 78.999 19.6613 78.6044 18.968C78.2204 18.2747 78.0284 17.4747 78.0284 16.568C78.0284 15.6613 78.2257 14.8613 78.6204 14.168C79.0257 13.4747 79.575 12.9413 80.2684 12.568C80.9617 12.184 81.735 11.992 82.5884 11.992C83.4417 11.992 84.215 12.184 84.9084 12.568C85.6017 12.9413 86.1457 13.4747 86.5404 14.168C86.9457 14.8613 87.1484 15.6613 87.1484 16.568C87.1484 17.4747 86.9404 18.2747 86.5244 18.968C86.119 19.6613 85.5644 20.2 84.8604 20.584C84.167 20.9573 83.3884 21.144 82.5244 21.144ZM82.5244 19.192C82.9297 19.192 83.3084 19.096 83.6604 18.904C84.023 18.7013 84.311 18.4027 84.5244 18.008C84.7377 17.6133 84.8444 17.1333 84.8444 16.568C84.8444 15.7253 84.6204 15.08 84.1724 14.632C83.735 14.1733 83.1964 13.944 82.5564 13.944C81.9164 13.944 81.3777 14.1733 80.9404 14.632C80.5137 15.08 80.3004 15.7253 80.3004 16.568C80.3004 17.4107 80.5084 18.0613 80.9244 18.52C81.351 18.968 81.8844 19.192 82.5244 19.192ZM88.2155 16.568C88.2155 15.6507 88.4022 14.8507 88.7755 14.168C89.1488 13.4747 89.6662 12.9413 90.3275 12.568C90.9888 12.184 91.7462 11.992 92.5995 11.992C93.6982 11.992 94.6048 12.2693 95.3195 12.824C96.0448 13.368 96.5302 14.136 96.7755 15.128H94.3595C94.2315 14.744 94.0128 14.4453 93.7035 14.232C93.4048 14.008 93.0315 13.896 92.5835 13.896C91.9435 13.896 91.4368 14.1307 91.0635 14.6C90.6902 15.0587 90.5035 15.7147 90.5035 16.568C90.5035 17.4107 90.6902 18.0667 91.0635 18.536C91.4368 18.9947 91.9435 19.224 92.5835 19.224C93.4902 19.224 94.0822 18.8187 94.3595 18.008H96.7755C96.5302 18.968 96.0448 19.7307 95.3195 20.296C94.5942 20.8613 93.6875 21.144 92.5995 21.144C91.7462 21.144 90.9888 20.9573 90.3275 20.584C89.6662 20.2 89.1488 19.6667 88.7755 18.984C88.4022 18.2907 88.2155 17.4853 88.2155 16.568ZM97.8405 16.536C97.8405 15.64 98.0165 14.8453 98.3685 14.152C98.7312 13.4587 99.2165 12.9253 99.8245 12.552C100.443 12.1787 101.131 11.992 101.889 11.992C102.55 11.992 103.126 12.1253 103.617 12.392C104.118 12.6587 104.518 12.9947 104.817 13.4V12.136H107.073V21H104.817V19.704C104.529 20.12 104.129 20.4667 103.617 20.744C103.115 21.0107 102.534 21.144 101.873 21.144C101.126 21.144 100.443 20.952 99.8245 20.568C99.2165 20.184 98.7312 19.6453 98.3685 18.952C98.0165 18.248 97.8405 17.4427 97.8405 16.536ZM104.817 16.568C104.817 16.024 104.71 15.56 104.497 15.176C104.283 14.7813 103.995 14.4827 103.633 14.28C103.27 14.0667 102.881 13.96 102.465 13.96C102.049 13.96 101.665 14.0613 101.312 14.264C100.961 14.4667 100.673 14.7653 100.449 15.16C100.235 15.544 100.129 16.0027 100.129 16.536C100.129 17.0693 100.235 17.5387 100.449 17.944C100.673 18.3387 100.961 18.6427 101.312 18.856C101.675 19.0693 102.059 19.176 102.465 19.176C102.881 19.176 103.27 19.0747 103.633 18.872C103.995 18.6587 104.283 18.36 104.497 17.976C104.71 17.5813 104.817 17.112 104.817 16.568ZM111.5 13.416C111.788 13.0107 112.183 12.6747 112.684 12.408C113.196 12.1307 113.778 11.992 114.428 11.992C115.186 11.992 115.868 12.1787 116.476 12.552C117.095 12.9253 117.58 13.4587 117.932 14.152C118.295 14.8347 118.476 15.6293 118.476 16.536C118.476 17.4427 118.295 18.248 117.932 18.952C117.58 19.6453 117.095 20.184 116.476 20.568C115.868 20.952 115.186 21.144 114.428 21.144C113.778 21.144 113.202 21.0107 112.7 20.744C112.21 20.4773 111.81 20.1413 111.5 19.736V25.224H109.26V12.136H111.5V13.416ZM116.188 16.536C116.188 16.0027 116.076 15.544 115.852 15.16C115.639 14.7653 115.351 14.4667 114.988 14.264C114.636 14.0613 114.252 13.96 113.836 13.96C113.431 13.96 113.047 14.0667 112.684 14.28C112.332 14.4827 112.044 14.7813 111.82 15.176C111.607 15.5707 111.5 16.0347 111.5 16.568C111.5 17.1013 111.607 17.5653 111.82 17.96C112.044 18.3547 112.332 18.6587 112.684 18.872C113.047 19.0747 113.431 19.176 113.836 19.176C114.252 19.176 114.636 19.0693 114.988 18.856C115.351 18.6427 115.639 18.3387 115.852 17.944C116.076 17.5493 116.188 17.08 116.188 16.536ZM121.24 11.08C120.845 11.08 120.515 10.9573 120.248 10.712C119.992 10.456 119.864 10.1413 119.864 9.768C119.864 9.39467 119.992 9.08533 120.248 8.84C120.515 8.584 120.845 8.456 121.24 8.456C121.635 8.456 121.96 8.584 122.216 8.84C122.483 9.08533 122.616 9.39467 122.616 9.768C122.616 10.1413 122.483 10.456 122.216 10.712C121.96 10.9573 121.635 11.08 121.24 11.08ZM122.344 12.136V21H120.104V12.136H122.344ZM127.165 13.976V18.264C127.165 18.5627 127.234 18.7813 127.373 18.92C127.522 19.048 127.768 19.112 128.109 19.112H129.149V21H127.741C125.853 21 124.909 20.0827 124.909 18.248V13.976H123.853V12.136H124.909V9.944H127.165V12.136H129.149V13.976H127.165ZM130.184 16.536C130.184 15.64 130.36 14.8453 130.712 14.152C131.075 13.4587 131.56 12.9253 132.168 12.552C132.787 12.1787 133.475 11.992 134.232 11.992C134.894 11.992 135.47 12.1253 135.96 12.392C136.462 12.6587 136.862 12.9947 137.16 13.4V12.136H139.416V21H137.16V19.704C136.872 20.12 136.472 20.4667 135.96 20.744C135.459 21.0107 134.878 21.144 134.216 21.144C133.47 21.144 132.787 20.952 132.168 20.568C131.56 20.184 131.075 19.6453 130.712 18.952C130.36 18.248 130.184 17.4427 130.184 16.536ZM137.16 16.568C137.16 16.024 137.054 15.56 136.84 15.176C136.627 14.7813 136.339 14.4827 135.976 14.28C135.614 14.0667 135.224 13.96 134.808 13.96C134.392 13.96 134.008 14.0613 133.656 14.264C133.304 14.4667 133.016 14.7653 132.792 15.16C132.579 15.544 132.472 16.0027 132.472 16.536C132.472 17.0693 132.579 17.5387 132.792 17.944C133.016 18.3387 133.304 18.6427 133.656 18.856C134.019 19.0693 134.403 19.176 134.808 19.176C135.224 19.176 135.614 19.0747 135.976 18.872C136.339 18.6587 136.627 18.36 136.84 17.976C137.054 17.5813 137.16 17.112 137.16 16.568ZM143.844 9.16V21H141.604V9.16H143.844Z" fill="black"/>
<path d="M24.3775 20.1769C23.4499 22.9676 21.5434 25.34 19.001 26.8674C16.4587 28.3949 13.4473 28.977 10.5087 28.5092C7.57012 28.0413 4.89719 26.5541 2.97079 24.3152C1.04439 22.0763 -0.00902402 19.2326 5.81865e-05 16.2957C0.00914039 13.3588 1.08012 10.5215 3.02033 8.29421C4.96054 6.06694 7.64262 4.5959 10.584 4.14574C13.5255 3.69558 16.5332 4.29585 19.066 5.83857C21.5989 7.38128 23.4907 9.76516 24.4011 12.5614L21.719 13.4114C21.0138 11.2454 19.5484 9.39873 17.5863 8.20369C15.6242 7.00865 13.2944 6.54365 11.0158 6.89236C8.73729 7.24107 6.65965 8.3806 5.15669 10.1059C3.65373 11.8313 2.82411 14.0291 2.81707 16.3042C2.81004 18.5792 3.62605 20.7821 5.11831 22.5164C6.61058 24.2508 8.68113 25.4028 10.9575 25.7652C13.2338 26.1276 15.5665 25.6767 17.5359 24.4935C19.5053 23.3102 20.9822 21.4725 21.7008 19.3107L24.3775 20.1769Z" fill="black"/>
<rect x="13.5135" width="2.02703" height="6" fill="black"/>
<rect x="13.5135" y="26" width="2.02703" height="6" fill="black"/>
<rect x="10.1351" width="2.02703" height="6" fill="black"/>
<rect x="10.1351" y="26" width="2.02703" height="6" fill="black"/>
</svg>
