<svg width="322" height="162" viewBox="0 0 322 162" fill="none" xmlns="http://www.w3.org/2000/svg">
<path d="M1.72727 48.6364V38.4545H42.1818V48.6364H28.1818V85H15.7273V48.6364H1.72727ZM46.9375 85V38.4545H80.483V48.6364H59.5739V56.6364H78.7557V66.8182H59.5739V74.8182H80.392V85H46.9375ZM104.659 85H86.75V38.4545H104.477C109.265 38.4545 113.402 39.3864 116.886 41.25C120.386 43.0985 123.083 45.7651 124.977 49.25C126.886 52.7197 127.841 56.8788 127.841 61.7273C127.841 66.5758 126.894 70.7424 125 74.2273C123.106 77.697 120.424 80.3636 116.955 82.2273C113.485 84.0758 109.386 85 104.659 85ZM99.3864 74.2727H104.205C106.508 74.2727 108.47 73.9015 110.091 73.1591C111.727 72.4167 112.97 71.1364 113.818 69.3182C114.682 67.5 115.114 64.9697 115.114 61.7273C115.114 58.4848 114.674 55.9545 113.795 54.1364C112.932 52.3182 111.659 51.0379 109.977 50.2955C108.311 49.553 106.265 49.1818 103.841 49.1818H99.3864V74.2727Z" fill="#FF2B06"/>
<path d="M143.977 27.0909L149.727 38.5909L155.682 27.0909H166.886L157.136 44.5455L167.25 62H156.136L149.727 50.4091L143.477 62H132.205L142.341 44.5455L132.705 27.0909H143.977Z" fill="#FF2B06"/>
<path d="M20.1818 147H5.11364V100.455H20.6591C25.2197 100.455 29.1364 101.386 32.4091 103.25C35.6818 105.098 38.1894 107.758 39.9318 111.227C41.6894 114.682 42.5682 118.826 42.5682 123.659C42.5682 128.508 41.6818 132.674 39.9091 136.159C38.1515 139.644 35.6061 142.326 32.2727 144.205C28.9394 146.068 24.9091 147 20.1818 147ZM12.1364 140.864H19.7955C23.3409 140.864 26.2879 140.197 28.6364 138.864C30.9848 137.515 32.7424 135.568 33.9091 133.023C35.0758 130.462 35.6591 127.341 35.6591 123.659C35.6591 120.008 35.0758 116.909 33.9091 114.364C32.7576 111.818 31.0379 109.886 28.75 108.568C26.4621 107.25 23.6212 106.591 20.2273 106.591H12.1364V140.864ZM45.3352 100.455H53.3125L65.4716 121.614H65.9716L78.1307 100.455H86.108L69.2216 128.727V147H62.2216V128.727L45.3352 100.455ZM92.7386 147V100.455H109.33C112.951 100.455 115.951 101.114 118.33 102.432C120.708 103.75 122.489 105.553 123.67 107.841C124.852 110.114 125.443 112.674 125.443 115.523C125.443 118.386 124.845 120.962 123.648 123.25C122.466 125.523 120.678 127.326 118.284 128.659C115.905 129.977 112.913 130.636 109.307 130.636H97.8977V124.682H108.67C110.958 124.682 112.814 124.288 114.239 123.5C115.663 122.697 116.708 121.606 117.375 120.227C118.042 118.848 118.375 117.28 118.375 115.523C118.375 113.765 118.042 112.205 117.375 110.841C116.708 109.477 115.655 108.409 114.216 107.636C112.792 106.864 110.913 106.477 108.58 106.477H99.7614V147H92.7386ZM132.67 147H125.216L141.966 100.455H150.08L166.83 147H159.375L146.216 108.909H145.852L132.67 147ZM133.92 128.773H158.102V134.682H133.92V128.773ZM179.256 135.159L179.21 126.864H180.392L194.301 112.091H202.438L186.574 128.909H185.506L179.256 135.159ZM173.006 147V100.455H179.801V147H173.006ZM195.051 147L182.551 130.409L187.233 125.659L203.392 147H195.051ZM230.744 132.523V112.091H237.562V147H230.881V140.955H230.517C229.714 142.818 228.426 144.371 226.653 145.614C224.896 146.841 222.706 147.455 220.085 147.455C217.843 147.455 215.858 146.962 214.131 145.977C212.419 144.977 211.07 143.5 210.085 141.545C209.116 139.591 208.631 137.174 208.631 134.295V112.091H215.426V133.477C215.426 135.856 216.085 137.75 217.403 139.159C218.722 140.568 220.434 141.273 222.54 141.273C223.813 141.273 225.078 140.955 226.335 140.318C227.608 139.682 228.661 138.72 229.494 137.432C230.343 136.144 230.759 134.508 230.744 132.523ZM246.693 147V112.091H253.261V117.636H253.625C254.261 115.758 255.383 114.28 256.989 113.205C258.61 112.114 260.443 111.568 262.489 111.568C262.913 111.568 263.413 111.583 263.989 111.614C264.58 111.644 265.042 111.682 265.375 111.727V118.227C265.102 118.152 264.617 118.068 263.92 117.977C263.223 117.871 262.527 117.818 261.83 117.818C260.223 117.818 258.792 118.159 257.534 118.841C256.292 119.508 255.307 120.439 254.58 121.636C253.852 122.818 253.489 124.167 253.489 125.682V147H246.693ZM283.074 147.682C280.256 147.682 277.741 146.962 275.528 145.523C273.331 144.068 271.604 142 270.347 139.318C269.104 136.621 268.483 133.386 268.483 129.614C268.483 125.841 269.112 122.614 270.369 119.932C271.642 117.25 273.384 115.197 275.597 113.773C277.809 112.348 280.316 111.636 283.119 111.636C285.286 111.636 287.028 112 288.347 112.727C289.68 113.439 290.71 114.273 291.438 115.227C292.18 116.182 292.756 117.023 293.165 117.75H293.574V100.455H300.369V147H293.733V141.568H293.165C292.756 142.311 292.165 143.159 291.392 144.114C290.634 145.068 289.589 145.902 288.256 146.614C286.922 147.326 285.195 147.682 283.074 147.682ZM284.574 141.886C286.528 141.886 288.18 141.371 289.528 140.341C290.892 139.295 291.922 137.848 292.619 136C293.331 134.152 293.688 132 293.688 129.545C293.688 127.121 293.339 125 292.642 123.182C291.945 121.364 290.922 119.947 289.574 118.932C288.225 117.917 286.559 117.409 284.574 117.409C282.528 117.409 280.824 117.939 279.46 119C278.097 120.061 277.066 121.508 276.369 123.341C275.688 125.174 275.347 127.242 275.347 129.545C275.347 131.879 275.695 133.977 276.392 135.841C277.089 137.705 278.119 139.182 279.483 140.273C280.862 141.348 282.559 141.886 284.574 141.886ZM310.068 147V112.091H316.864V147H310.068ZM313.5 106.705C312.318 106.705 311.303 106.311 310.455 105.523C309.621 104.72 309.205 103.765 309.205 102.659C309.205 101.538 309.621 100.583 310.455 99.7955C311.303 98.9924 312.318 98.5909 313.5 98.5909C314.682 98.5909 315.689 98.9924 316.523 99.7955C317.371 100.583 317.795 101.538 317.795 102.659C317.795 103.765 317.371 104.72 316.523 105.523C315.689 106.311 314.682 106.705 313.5 106.705Z" fill="black"/>
</svg>
