<svg width="195" height="48" viewBox="0 0 195 48" fill="none" xmlns="http://www.w3.org/2000/svg">
<path d="M50.7 27C50.7 25.6267 51.0067 24.4 51.62 23.32C52.2467 22.2267 53.0933 21.38 54.16 20.78C55.24 20.1667 56.4467 19.86 57.78 19.86C59.34 19.86 60.7067 20.26 61.88 21.06C63.0533 21.86 63.8733 22.9667 64.34 24.38H61.12C60.8 23.7133 60.3467 23.2133 59.76 22.88C59.1867 22.5467 58.52 22.38 57.76 22.38C56.9467 22.38 56.22 22.5733 55.58 22.96C54.9533 23.3333 54.46 23.8667 54.1 24.56C53.7533 25.2533 53.58 26.0667 53.58 27C53.58 27.92 53.7533 28.7333 54.1 29.44C54.46 30.1333 54.9533 30.6733 55.58 31.06C56.22 31.4333 56.9467 31.62 57.76 31.62C58.52 31.62 59.1867 31.4533 59.76 31.12C60.3467 30.7733 60.8 30.2667 61.12 29.6H64.34C63.8733 31.0267 63.0533 32.14 61.88 32.94C60.72 33.7267 59.3533 34.12 57.78 34.12C56.4467 34.12 55.24 33.82 54.16 33.22C53.0933 32.6067 52.2467 31.76 51.62 30.68C51.0067 29.6 50.7 28.3733 50.7 27ZM69.5316 24.64C69.8916 24.0533 70.3582 23.5933 70.9316 23.26C71.5182 22.9267 72.1849 22.76 72.9316 22.76V25.7H72.1916C71.3116 25.7 70.6449 25.9067 70.1916 26.32C69.7516 26.7333 69.5316 27.4533 69.5316 28.48V34H66.7316V22.92H69.5316V24.64ZM85.4175 22.92L78.5575 39.24H75.5775L77.9775 33.72L73.5375 22.92H76.6775L79.5375 30.66L82.4375 22.92H85.4175ZM89.7269 24.52C90.0869 24.0133 90.5802 23.5933 91.2069 23.26C91.8469 22.9133 92.5735 22.74 93.3869 22.74C94.3335 22.74 95.1869 22.9733 95.9469 23.44C96.7202 23.9067 97.3269 24.5733 97.7669 25.44C98.2202 26.2933 98.4469 27.2867 98.4469 28.42C98.4469 29.5533 98.2202 30.56 97.7669 31.44C97.3269 32.3067 96.7202 32.98 95.9469 33.46C95.1869 33.94 94.3335 34.18 93.3869 34.18C92.5735 34.18 91.8535 34.0133 91.2269 33.68C90.6135 33.3467 90.1135 32.9267 89.7269 32.42V39.28H86.9269V22.92H89.7269V24.52ZM95.5869 28.42C95.5869 27.7533 95.4469 27.18 95.1669 26.7C94.9002 26.2067 94.5402 25.8333 94.0869 25.58C93.6469 25.3267 93.1669 25.2 92.6469 25.2C92.1402 25.2 91.6602 25.3333 91.2069 25.6C90.7669 25.8533 90.4069 26.2267 90.1269 26.72C89.8602 27.2133 89.7269 27.7933 89.7269 28.46C89.7269 29.1267 89.8602 29.7067 90.1269 30.2C90.4069 30.6933 90.7669 31.0733 91.2069 31.34C91.6602 31.5933 92.1402 31.72 92.6469 31.72C93.1669 31.72 93.6469 31.5867 94.0869 31.32C94.5402 31.0533 94.9002 30.6733 95.1669 30.18C95.4469 29.6867 95.5869 29.1 95.5869 28.42ZM103.742 25.22V30.58C103.742 30.9533 103.828 31.2267 104.002 31.4C104.188 31.56 104.495 31.64 104.922 31.64H106.222V34H104.462C102.102 34 100.922 32.8533 100.922 30.56V25.22H99.6016V22.92H100.922V20.18H103.742V22.92H106.222V25.22H103.742ZM113.155 34.18C112.089 34.18 111.129 33.9467 110.275 33.48C109.422 33 108.749 32.3267 108.255 31.46C107.775 30.5933 107.535 29.5933 107.535 28.46C107.535 27.3267 107.782 26.3267 108.275 25.46C108.782 24.5933 109.469 23.9267 110.335 23.46C111.202 22.98 112.169 22.74 113.235 22.74C114.302 22.74 115.269 22.98 116.135 23.46C117.002 23.9267 117.682 24.5933 118.175 25.46C118.682 26.3267 118.935 27.3267 118.935 28.46C118.935 29.5933 118.675 30.5933 118.155 31.46C117.649 32.3267 116.955 33 116.075 33.48C115.209 33.9467 114.235 34.18 113.155 34.18ZM113.155 31.74C113.662 31.74 114.135 31.62 114.575 31.38C115.029 31.1267 115.389 30.7533 115.655 30.26C115.922 29.7667 116.055 29.1667 116.055 28.46C116.055 27.4067 115.775 26.6 115.215 26.04C114.669 25.4667 113.995 25.18 113.195 25.18C112.395 25.18 111.722 25.4667 111.175 26.04C110.642 26.6 110.375 27.4067 110.375 28.46C110.375 29.5133 110.635 30.3267 111.155 30.9C111.689 31.46 112.355 31.74 113.155 31.74ZM120.269 28.46C120.269 27.3133 120.503 26.3133 120.969 25.46C121.436 24.5933 122.083 23.9267 122.909 23.46C123.736 22.98 124.683 22.74 125.749 22.74C127.123 22.74 128.256 23.0867 129.149 23.78C130.056 24.46 130.663 25.42 130.969 26.66H127.949C127.789 26.18 127.516 25.8067 127.129 25.54C126.756 25.26 126.289 25.12 125.729 25.12C124.929 25.12 124.296 25.4133 123.829 26C123.363 26.5733 123.129 27.3933 123.129 28.46C123.129 29.5133 123.363 30.3333 123.829 30.92C124.296 31.4933 124.929 31.78 125.729 31.78C126.863 31.78 127.603 31.2733 127.949 30.26H130.969C130.663 31.46 130.056 32.4133 129.149 33.12C128.243 33.8267 127.109 34.18 125.749 34.18C124.683 34.18 123.736 33.9467 122.909 33.48C122.083 33 121.436 32.3333 120.969 31.48C120.503 30.6133 120.269 29.6067 120.269 28.46ZM132.301 28.42C132.301 27.3 132.521 26.3067 132.961 25.44C133.414 24.5733 134.021 23.9067 134.781 23.44C135.554 22.9733 136.414 22.74 137.361 22.74C138.187 22.74 138.907 22.9067 139.521 23.24C140.147 23.5733 140.647 23.9933 141.021 24.5V22.92H143.841V34H141.021V32.38C140.661 32.9 140.161 33.3333 139.521 33.68C138.894 34.0133 138.167 34.18 137.341 34.18C136.407 34.18 135.554 33.94 134.781 33.46C134.021 32.98 133.414 32.3067 132.961 31.44C132.521 30.56 132.301 29.5533 132.301 28.42ZM141.021 28.46C141.021 27.78 140.887 27.2 140.621 26.72C140.354 26.2267 139.994 25.8533 139.541 25.6C139.087 25.3333 138.601 25.2 138.081 25.2C137.561 25.2 137.081 25.3267 136.641 25.58C136.201 25.8333 135.841 26.2067 135.561 26.7C135.294 27.18 135.161 27.7533 135.161 28.42C135.161 29.0867 135.294 29.6733 135.561 30.18C135.841 30.6733 136.201 31.0533 136.641 31.32C137.094 31.5867 137.574 31.72 138.081 31.72C138.601 31.72 139.087 31.5933 139.541 31.34C139.994 31.0733 140.354 30.7 140.621 30.22C140.887 29.7267 141.021 29.14 141.021 28.46ZM149.375 24.52C149.735 24.0133 150.229 23.5933 150.855 23.26C151.495 22.9133 152.222 22.74 153.035 22.74C153.982 22.74 154.835 22.9733 155.595 23.44C156.369 23.9067 156.975 24.5733 157.415 25.44C157.869 26.2933 158.095 27.2867 158.095 28.42C158.095 29.5533 157.869 30.56 157.415 31.44C156.975 32.3067 156.369 32.98 155.595 33.46C154.835 33.94 153.982 34.18 153.035 34.18C152.222 34.18 151.502 34.0133 150.875 33.68C150.262 33.3467 149.762 32.9267 149.375 32.42V39.28H146.575V22.92H149.375V24.52ZM155.235 28.42C155.235 27.7533 155.095 27.18 154.815 26.7C154.549 26.2067 154.189 25.8333 153.735 25.58C153.295 25.3267 152.815 25.2 152.295 25.2C151.789 25.2 151.309 25.3333 150.855 25.6C150.415 25.8533 150.055 26.2267 149.775 26.72C149.509 27.2133 149.375 27.7933 149.375 28.46C149.375 29.1267 149.509 29.7067 149.775 30.2C150.055 30.6933 150.415 31.0733 150.855 31.34C151.309 31.5933 151.789 31.72 152.295 31.72C152.815 31.72 153.295 31.5867 153.735 31.32C154.189 31.0533 154.549 30.6733 154.815 30.18C155.095 29.6867 155.235 29.1 155.235 28.42ZM161.55 21.6C161.057 21.6 160.643 21.4467 160.31 21.14C159.99 20.82 159.83 20.4267 159.83 19.96C159.83 19.4933 159.99 19.1067 160.31 18.8C160.643 18.48 161.057 18.32 161.55 18.32C162.043 18.32 162.45 18.48 162.77 18.8C163.103 19.1067 163.27 19.4933 163.27 19.96C163.27 20.4267 163.103 20.82 162.77 21.14C162.45 21.4467 162.043 21.6 161.55 21.6ZM162.93 22.92V34H160.13V22.92H162.93ZM168.956 25.22V30.58C168.956 30.9533 169.043 31.2267 169.216 31.4C169.403 31.56 169.71 31.64 170.136 31.64H171.436V34H169.676C167.316 34 166.136 32.8533 166.136 30.56V25.22H164.816V22.92H166.136V20.18H168.956V22.92H171.436V25.22H168.956ZM172.73 28.42C172.73 27.3 172.95 26.3067 173.39 25.44C173.844 24.5733 174.45 23.9067 175.21 23.44C175.984 22.9733 176.844 22.74 177.79 22.74C178.617 22.74 179.337 22.9067 179.95 23.24C180.577 23.5733 181.077 23.9933 181.45 24.5V22.92H184.27V34H181.45V32.38C181.09 32.9 180.59 33.3333 179.95 33.68C179.324 34.0133 178.597 34.18 177.77 34.18C176.837 34.18 175.984 33.94 175.21 33.46C174.45 32.98 173.844 32.3067 173.39 31.44C172.95 30.56 172.73 29.5533 172.73 28.42ZM181.45 28.46C181.45 27.78 181.317 27.2 181.05 26.72C180.784 26.2267 180.424 25.8533 179.97 25.6C179.517 25.3333 179.03 25.2 178.51 25.2C177.99 25.2 177.51 25.3267 177.07 25.58C176.63 25.8333 176.27 26.2067 175.99 26.7C175.724 27.18 175.59 27.7533 175.59 28.42C175.59 29.0867 175.724 29.6733 175.99 30.18C176.27 30.6733 176.63 31.0533 177.07 31.32C177.524 31.5867 178.004 31.72 178.51 31.72C179.03 31.72 179.517 31.5933 179.97 31.34C180.424 31.0733 180.784 30.7 181.05 30.22C181.317 29.7267 181.45 29.14 181.45 28.46ZM189.805 19.2V34H187.005V19.2H189.805Z" fill="white"/>
<path d="M34.0979 29.6157C35.1919 29.9745 35.7985 31.1588 35.319 32.2055C33.788 35.5473 31.288 38.3731 28.1215 40.3012C24.3588 42.5923 19.902 43.4655 15.5529 42.7637C11.2038 42.062 7.24784 39.8312 4.39677 36.4728C1.5457 33.1145 -0.0133556 28.8489 8.6116e-05 24.4436C0.0135278 20.0382 1.59858 15.7822 4.47009 12.4413C7.3416 9.10041 11.3111 6.89385 15.6644 6.21861C20.0177 5.54337 24.4691 6.44378 28.2177 8.75785C31.3724 10.7052 33.8551 13.5462 35.3657 16.8973C35.8388 17.9469 35.225 19.1275 34.1288 19.4796C33.0327 19.8317 31.872 19.2191 31.3647 18.1856C30.1813 15.7746 28.3369 13.731 26.0277 12.3055C23.1239 10.513 19.6757 9.81548 16.3034 10.3385C12.9312 10.8616 9.85629 12.5709 7.63191 15.1589C5.40752 17.7469 4.17968 21.0437 4.16927 24.4563C4.15886 27.8688 5.36656 31.1731 7.57511 33.7746C9.78365 36.3761 12.8481 38.1042 16.2171 38.6478C19.586 39.1914 23.0384 38.515 25.9532 36.7402C28.271 35.3288 30.1278 33.2966 31.3259 30.8928C31.8395 29.8624 33.004 29.2569 34.0979 29.6157Z" fill="white"/>
<rect x="20" width="3" height="9" rx="1.5" fill="white"/>
<rect x="20" y="39" width="3" height="9" rx="1.5" fill="white"/>
<rect x="15" width="3" height="9" rx="1.5" fill="white"/>
<rect x="15" y="39" width="3" height="9" rx="1.5" fill="white"/>
</svg>
